<svg xmlns="http://www.w3.org/2000/svg" width="245" height="179" fill="none"><mask id="a" width="123" height="179" x="0" y="0" maskUnits="userSpaceOnUse" style="mask-type:alpha"><path fill="#F1F6FF" d="m122.674 97.32-68.457 81.575L.415 149.831 122.674.066V97.32z"/></mask><g mask="url(#a)"><path fill="#F1F6FF" d="m122.674 97.32-68.457 81.575L.415 149.831 122.674.066V97.32z"/><path fill="url(#b)" d="M.415 149.831 122.674.066 54.217 178.895.415 149.831z"/></g><mask id="c" width="123" height="179" x="122" y="0" maskUnits="userSpaceOnUse" style="mask-type:alpha"><path fill="#F1F6FF" d="m122.674 97.32 68.456 81.575 53.803-29.064L122.674.066V97.32z"/></mask><g mask="url(#c)"><path fill="url(#d)" d="m122.674 97.32 68.456 81.575 53.803-29.064L122.674.066V97.32z"/><path fill="#A4C5EB" d="M244.933 149.831 122.674.066l68.456 178.829 53.803-29.064z"/></g><mask id="e" width="112" height="67" x="67" y="112" maskUnits="userSpaceOnUse" style="mask-type:alpha"><path fill="#647699" d="M178.119 178.912H67.205l55.46-66.124 55.454 66.124z"/></mask><g mask="url(#e)"><path fill="url(#f)" d="M178.119 178.912H67.205l55.46-66.124 55.454 66.124z"/><path fill="url(#g)" d="m122.665 153.437-55.46 25.475 55.46-66.124v40.649z"/><path fill="#F1F6FF" d="m122.675 153.437 55.46 25.475-55.46-66.124v40.649z"/></g><defs><linearGradient id="b" x1="61.545" x2="61.545" y1=".066" y2="178.655" gradientUnits="userSpaceOnUse"><stop stop-color="#B2D3F9"/><stop offset="1" stop-color="#7B99BC"/></linearGradient><linearGradient id="d" x1="179.372" x2="285.386" y1="-6.581" y2="125.45" gradientUnits="userSpaceOnUse"><stop stop-color="#6E81A5"/><stop offset="1" stop-color="#546586"/></linearGradient><linearGradient id="f" x1="122.662" x2="122.662" y1="112.788" y2="178.824" gradientUnits="userSpaceOnUse"><stop stop-color="#B2D3F9"/><stop offset="1" stop-color="#7B99BC"/></linearGradient><linearGradient id="g" x1="96.945" x2="60.152" y1="110.33" y2="166.545" gradientUnits="userSpaceOnUse"><stop stop-color="#6E81A5"/><stop offset="1" stop-color="#546586"/></linearGradient></defs></svg>